<svg id="behance" xmlns="http://www.w3.org/2000/svg" width="34.397" height="34.397" viewBox="0 0 34.397 34.397">
  <g id="Groupe_379" data-name="Groupe 379">
    <g id="Groupe_378" data-name="Groupe 378">
      <path id="Tracé_527" data-name="Tracé 527" d="M17.54,19.723c0-.937-.637-.937-.637-.937H14.28V20.8h2.46C17.166,20.8,17.54,20.661,17.54,19.723Z" transform="translate(-3.966 -5.489)" fill="#ef487d"/>
      <path id="Tracé_528" data-name="Tracé 528" d="M31.979,22.864a1.947,1.947,0,0,0-1.973,1.626H33.69A1.6,1.6,0,0,0,31.979,22.864Z" transform="translate(-8.856 -6.86)" fill="#ef487d"/>
      <path id="Tracé_529" data-name="Tracé 529" d="M16.682,25.68h-2.4v2.2h2.125c.036,0,.089,0,.153,0,.341-.009.991-.106.991-1.071C17.551,25.669,16.682,25.68,16.682,25.68Z" transform="translate(-3.969 -7.173)" fill="#ef487d"/>
      <path id="Tracé_530" data-name="Tracé 530" d="M17.2,0A17.2,17.2,0,1,0,34.4,17.2,17.218,17.218,0,0,0,17.2,0Zm3.043,11.51h5.223V13.07H20.242ZM17.6,19.688c0,3.864-4.022,3.737-4.022,3.737H6.992V10.765h6.587c2,0,3.583,1.106,3.583,3.372a2.2,2.2,0,0,1-1.931,2.409c2.546,0,2.371,3.142,2.371,3.142Zm9.772-.208H20.811a2.061,2.061,0,0,0,2.229,2.2c2.1,0,2.03-1.362,2.03-1.362H27.3c0,3.615-4.333,3.366-4.333,3.366A4.491,4.491,0,0,1,18.1,18.85s0-4.865,4.864-4.865C28.091,13.985,27.371,19.48,27.373,19.48Z" fill="#ef487d"/>
    </g>
  </g>
</svg>
