<svg xmlns="http://www.w3.org/2000/svg" width="34.401" height="34.397" viewBox="0 0 34.401 34.397">
  <g id="dribble-big-logo" transform="translate(0 0)">
    <path id="Tracé_531" data-name="Tracé 531" d="M17.2,34.425a17.2,17.2,0,1,1,17.2-17.2A17.22,17.22,0,0,1,17.2,34.425ZM30.947,19.457a20.473,20.473,0,0,0-8.672-.6,60.048,60.048,0,0,1,2.7,9.926A13.941,13.941,0,0,0,30.947,19.457ZM22.64,30.063a58,58,0,0,0-2.971-10.557l-.092.031C11.725,22.271,8.906,27.72,8.655,28.232A13.908,13.908,0,0,0,22.64,30.063ZM6.857,26.556c.315-.54,4.137-6.866,11.317-9.187.182-.059.365-.113.548-.164-.349-.792-.729-1.582-1.129-2.364A51.3,51.3,0,0,1,3.284,16.822c0,.142-.006.284-.006.425A13.863,13.863,0,0,0,6.857,26.556ZM3.572,14.4a52.04,52.04,0,0,0,12.872-1.7,88.133,88.133,0,0,0-5.162-8.051A13.969,13.969,0,0,0,3.572,14.4ZM13.938,3.714a74.14,74.14,0,0,1,5.2,8.15c4.952-1.858,7.046-4.672,7.3-5.028A13.912,13.912,0,0,0,13.938,3.714Zm14.039,4.73A18.522,18.522,0,0,1,20.2,13.932c.324.665.634,1.34.924,2.018q.152.362.3.718a32.493,32.493,0,0,1,9.7.449A13.858,13.858,0,0,0,27.977,8.444Z" transform="translate(0 -0.028)" fill="#ef487d" fill-rule="evenodd"/>
  </g>
</svg>
