<svg xmlns="http://www.w3.org/2000/svg" width="34" height="34" viewBox="0 0 34 34">
  <g id="Groupe_398" data-name="Groupe 398" transform="translate(-1495.728 -19)">
    <g id="instagram_1_" data-name="instagram (1)" transform="translate(1495.728 19)">
      <path id="Tracé_550" data-name="Tracé 550" d="M36.826,23.88H26.692a2.937,2.937,0,0,0-2.933,2.933V36.947a2.937,2.937,0,0,0,2.933,2.934H36.826a2.937,2.937,0,0,0,2.934-2.934V26.813A2.937,2.937,0,0,0,36.826,23.88ZM31.759,37.148a5.267,5.267,0,1,1,5.268-5.268A5.273,5.273,0,0,1,31.759,37.148ZM37.2,27.7a1.246,1.246,0,1,1,1.246-1.246A1.248,1.248,0,0,1,37.2,27.7Z" transform="translate(-14.759 -14.834)" fill="#ef487d"/>
      <path id="Tracé_551" data-name="Tracé 551" d="M39.891,36.971a3.042,3.042,0,1,0,3.041,3.041A3.045,3.045,0,0,0,39.891,36.971Z" transform="translate(-22.891 -22.967)" fill="#ef487d"/>
      <path id="Tracé_552" data-name="Tracé 552" d="M17,0A17,17,0,1,0,34,17,17,17,0,0,0,17,0ZM27.226,22.113a5.165,5.165,0,0,1-5.159,5.159H11.933a5.165,5.165,0,0,1-5.159-5.159V11.979A5.165,5.165,0,0,1,11.933,6.82H22.067a5.165,5.165,0,0,1,5.159,5.159Z" fill="#ef487d"/>
    </g>
  </g>
</svg>
