<svg xmlns="http://www.w3.org/2000/svg" width="34" height="34" viewBox="0 0 34 34">
  <g id="linkedin" transform="translate(0.167)">
    <path id="Soustraction_2" data-name="Soustraction 2" d="M17,34a17.127,17.127,0,0,1-3.426-.345A16.9,16.9,0,0,1,7.495,31.1a17.047,17.047,0,0,1-6.159-7.48,16.913,16.913,0,0,1-.991-3.191,17.167,17.167,0,0,1,0-6.852A16.909,16.909,0,0,1,2.9,7.5a17.051,17.051,0,0,1,7.479-6.159A16.912,16.912,0,0,1,13.574.345a17.163,17.163,0,0,1,6.852,0A16.9,16.9,0,0,1,26.505,2.9a17.048,17.048,0,0,1,6.159,7.48,16.909,16.909,0,0,1,.991,3.191,17.165,17.165,0,0,1,0,6.852A16.911,16.911,0,0,1,31.1,26.5a17.051,17.051,0,0,1-7.479,6.159,16.913,16.913,0,0,1-3.191.991A17.126,17.126,0,0,1,17,34ZM14.878,12.713V23.358h3.195V17.6a2.374,2.374,0,0,1,.732-1.658,2.6,2.6,0,0,1,.8-.541,2.457,2.457,0,0,1,.981-.2,1.724,1.724,0,0,1,.861.2,1.443,1.443,0,0,1,.533.538,3.252,3.252,0,0,1,.347,1.632v5.785h3.183V17.335a8.493,8.493,0,0,0-.334-2.539,3.806,3.806,0,0,0-.85-1.507,3.113,3.113,0,0,0-2.343-.909,5.254,5.254,0,0,0-2.166.438,4.6,4.6,0,0,0-1.742,1.372V12.713Zm-5.3.035v10.61h3.183V12.748ZM11.156,8.5a1.594,1.594,0,1,0,1.594,1.594A1.6,1.6,0,0,0,11.156,8.5Z" transform="translate(-0.167 0)" fill="#ef487d"/>
  </g>
</svg>
