<svg xmlns="http://www.w3.org/2000/svg" viewBox="0 0 143.84 113.63"><defs><style>.cls-1{fill:#d1cfd0;fill-rule:evenodd;opacity:0.51;}.cls-2{fill:none;}</style></defs><g id="Calque_2" data-name="Calque 2"><g id="svg2"><path id="CN" class="cls-1" d="M110.45,106.2l.28-1.64.91-1.28-.73-1.15-1.46,0-2.65.82-1,1.28.46,2.51,2.24.92,2-1.42Zm6-89.82-2.79-2.79-2-1.69L110,10.67l-3.52-2.79-2.7-1L99.85,6,97,6.1l-2.34.5L93.91,8l1.69.69,1.14,1.51-.55.91,0,3,.87,1.24-2,1.78L91.76,16l.27,2.1L92.17,21l1.23,1.19,1.1-.36,2.47.45,1.14-1.05,2.33.92,3.29,2,.32,1-2-.32L99,25.11l-1.1.83-.64,1.87-2.88,1.1L93,30.42l-2.7-.6-1.46-.23-.19,1.83,1.33,1,.87,1-1.14.92-.87,1.5-2.24,1L83.12,37l-3.29,1-2,1.51-1.47-.92-2.83.05-4.25-1.74-2.51-.41-2.93.36-5.12-.59-2.51.05-2.15-1.65L51.81,32l-1.56-.32L46.64,30l-3.29-.41-2.92-.46-1.37-1.23-.6-3.34-2.65-2.29-3.7-1.05L29.5,19.67l-1.51-2-.77.23-.83,1.92-1.73.27,1.14,2.84-.73,1.28-4.89-.92.45,5.08-.91.64-4.11,1.1,4,4.89-1.32.73.77,1.6-.09.64-3.11,1.55-.45,1.1L12.45,41l-.27,1.83-2.61-.41-1.46.55L6.28,44.31l.5.69-.45.68,1.37,2.7.73-.28,1.6.64.27,1.15.83,1.69.64.87,2.15,1.37,1.32,2.28,4.3,1.19L23,60.72l.37,2.38,1.37,1.51.27,1.5-1.87-.41,1.46,3.2,2.84,1.83,3.88,2,.87-.68,2.15.91,2.92,1.88,1.47.41,1.14,1.41,2.06.55,2.28,1.28,2.93.69,3,.27,1.37-.64.68,2.33L53.36,79l1.19-.73,1.92.68,1.33,0,1.23.82L61,79.42l1.78-2.2,2.43-1.83,2.24.69,1.46-1.19,1.6,1.78-.55,1.24,2.79.41,1.37-.18,1.23,1.69,1.24.68.59,2.24.37,2.43L75.62,87.6,75.94,91l2.56-.46,1,2.65,1.7.59-.37,2.38,2.06,1.1,1.14.55L85.82,97l.27,1.19.32.69,1.33,0-.87-3.29,1.23-.45,1.24-.69h2l2.42-.32,1.88-1.55L97,93.72l2.38.51-.1,1.69,1.38,1.19,2.69.73,1.1-.46,3.52.91-.41,1.15,1,2.1,1.38-.18.36-3.07,2.56-.41,3.29-1.46L117.26,95l1.06,1,1.28-1.33,2.78-.32,3-2.42,2.88-2.7,1.51-3.47,1.05-3.84,1-3.16,1.28-.22L133,76.13l-.36-2.34-1.74-.91-1.14-1.55,1.28-.78-.73-2.15-2.47-2.24-2.47-2.65-2.1-2.88L120.05,59l.41-2.1,1.74-1.47.46-1.6,3.06-.82-1.1-1.55-1.55-.09-2.65-1.15-1.78,2.11-2.24-.87-.69-1.33-2.15-.46-2.15-2,.55-1.37,2.29-.13.55-1.88,1.64-2,1.56-1,2,1.51-.87,1.92,1,1.15-.64,1.37,2.19-.83,1.1-1.32,2.88-.87,1-1.83,1.74-1.55.45-2,1.65.91,2.1.09-1.23-1.51,2.88-1.19-.05-1.6,2.52,1.65h0l-.87-1.42,1.14,0-1.74-3.34L133.13,30l1.32-1,3.11.51-.27-2.75L136,23.6l.18-1.05-.6-2.56-3.15.83L131.25,22h-3.43l-2.74-2.65L121,17.25l-4.52-.87Z"/><rect class="cls-2" width="143.84" height="113.63"/></g></g></svg>