<svg xmlns="http://www.w3.org/2000/svg" viewBox="0 0 143.84 112.71"><defs><style>.cls-1{fill:#d1cfd0;fill-rule:evenodd;opacity:0.51;}.cls-2{fill:none;}</style></defs><g id="Calque_2" data-name="Calque 2"><g id="svg2"><path id="FR" class="cls-1" d="M111,85.68,109.77,80l-3.49,2.51L105.19,85l1.52,4.58,2.62,1.31ZM76.61,30.16,74,27.54l-2.4-.1L70.83,25l-4.69,1.3-1.53,5.57L52.29,37.14l-5-2.83,1.53,7.63L39.86,40.2l-7,1.41.43,5,8.18,2.62,3.93,3.38L51,59.72,49.89,73.13l-3,4,2.19,2.62,10.25,3,2.07-1.42,6.22,3.06,6.54-.88.55-4,8.07-2.18,10.9,1.74,4.91-3.71.55-2.94-3-.87-1.63-5.24,1.85-2-1.74-2.62.21-1.85L93,57l-2.62,1v-3l3.82-3.82L94,49.36l2.51.65,1.42-1.09L98.42,44l2.51-4.58-7.74-1.31-2.62-1.74L89,36.49l-1.2-.55-4.79-3-2.73.43-3.71-3.16Z"/><rect class="cls-2" width="143.84" height="112.71"/></g></g></svg>