<svg xmlns="http://www.w3.org/2000/svg" viewBox="0 0 143.84 112.81"><defs><style>.cls-1{fill:#d1cfd0;fill-rule:evenodd;opacity:0.51;}.cls-2{fill:none;}</style></defs><g id="Calque_2" data-name="Calque 2"><g id="svg2"><path id="JP" class="cls-1" d="M71.09,80.57l-3.92-1.13-1,2.35-2.88-.7-1.14,3.32L63.24,87,66.9,88.6l-.08-3.23,1.83-1.31,2.7,1.83,1.14-3.4-1.4-1.92ZM92.38,63.73l-3.14-5.85,1.13-5.58-2.44-4.54-7.07-7.59-4.18,1,.17,3.4,4.45,6.2.87,6.89-1.48,2.18-3.93,5.67-4.36-2.7v10l-5.5-1.13-8.37,1.66-1.66,3.83-3.4,2.88-1,3.49-3.75,1.75,3.49,3.75,3.57,1.66.79,5,3,2.18,2.18-2.35-.69-9.43-6.37-4.1L60.1,82l4.36-2.62L72,78.13l2.1,4.19,4,2.09L81.91,78l7.94-.35,4.71-2.62.53-4L92.9,68.27l-.52-4.54ZM82.09,25.17l-4.63-1.84-9.07-5.58L70,21.94l3.76,7.41-4.54.35.52,4.1,4,5.33h5l-1.4-5.94,9.43,3.67.35-5.33,5.58-1.48L87.5,24,86,26.3l-3.92-1.13Z"/><rect class="cls-2" width="143.84" height="112.81"/></g></g></svg>