<svg xmlns="http://www.w3.org/2000/svg" viewBox="0 0 125.62 86.88"><defs><style>.cls-1{fill:#dab5b3;}.cls-2{fill:#81736b;}</style></defs><g id="Calque_2" data-name="Calque 2"><g id="Calque_1-2" data-name="Calque 1"><path class="cls-1" d="M45,61.31a3.36,3.36,0,0,0,.76-1.2c3-5.72,5.72-11.62,8.3-17.57a87.14,87.14,0,0,1,4-7.87c1.77-3.15,3.66-6.22,5.72-9.19a91.2,91.2,0,0,1,6.77-8.66A60.12,60.12,0,0,1,82.82,6.13,37.1,37.1,0,0,1,96.74.47a27,27,0,0,1,11,.2,10,10,0,0,1,7.47,8.68,15.08,15.08,0,0,1-1.63,8,36.24,36.24,0,0,1-4.28,7.05,1.17,1.17,0,0,1-1.43.37c-.65-.22-.8-.71-.47-1.39a15.24,15.24,0,0,0,1.23-3.61A9.66,9.66,0,0,0,104,9.27a17.22,17.22,0,0,0-6.54-2.15A29.79,29.79,0,0,0,93,6.79a18.29,18.29,0,0,0-11.81,4.34,42.27,42.27,0,0,0-8.29,10,120.87,120.87,0,0,0-6.74,12.54c-1.71,3.57-3.3,7.21-4.89,10.84a84.59,84.59,0,0,1-4.16,8A108.8,108.8,0,0,1,50,63.59a6.93,6.93,0,0,1-.5.58Z"/><path class="cls-2" d="M45,61.31l4.52,2.86a41,41,0,0,0,3.92,2.74,118.11,118.11,0,0,0,15,8.51,59.31,59.31,0,0,0,15,4.51,17.64,17.64,0,0,0,7.95-.24,17.38,17.38,0,0,0,6.86-4.13,20.11,20.11,0,0,0,2-2.18,1,1,0,0,1,1.23-.41,1.1,1.1,0,0,1,.41,1.38,1.24,1.24,0,0,1-.19.36,30.3,30.3,0,0,1-11.43,9.7A22.29,22.29,0,0,1,79,86.27a46.14,46.14,0,0,1-19.45-6c-4.28-2.45-8.28-5.34-12.29-8.2-.85-.61-1.68-1.23-2.51-1.85-1.12-.92-2.25-1.83-3.46-2.64a52.31,52.31,0,0,0-5.8-3.88,66.71,66.71,0,0,0-11.86-5.63,17.43,17.43,0,0,0-7-.85,31.44,31.44,0,0,0-4.73.64.63.63,0,0,1-.8-.34c-.19-.41,0-.68.34-.92a15.94,15.94,0,0,1,6.68-2.9,27.9,27.9,0,0,1,13.11,1,53.83,53.83,0,0,1,12.79,6Z"/><path class="cls-1" d="M41.27,67.62c1.21.81,2.34,1.72,3.46,2.64a15.38,15.38,0,0,0-1.94,1.93,49,49,0,0,1-4.11,3.91,50.89,50.89,0,0,1-7.89,5.7A35.64,35.64,0,0,1,18,86.52,27.15,27.15,0,0,1,7.46,86.2,10,10,0,0,1,.14,78a13.92,13.92,0,0,1,1.37-8,36.07,36.07,0,0,1,4.4-7.39A1.23,1.23,0,0,1,7.07,62a.93.93,0,0,1,.86,1.43,12.8,12.8,0,0,0-1.37,4.3,9.37,9.37,0,0,0,2.39,8,13.65,13.65,0,0,0,7.89,3.91,28.42,28.42,0,0,0,5.82.49,18.21,18.21,0,0,0,11.52-4.35,38.42,38.42,0,0,0,6.47-7.24C40.85,68.2,41.06,67.91,41.27,67.62Z"/><path class="cls-1" d="M104.5,34.43a13.24,13.24,0,0,0-1.85.12c-.69.13-1-.14-1-.83a8.21,8.21,0,0,1,.74-3.65,1.93,1.93,0,0,1,3.07-.72c2.4,2.11,5.36,2.92,8.31,3.76,1.95.56,3.93,1,5.93,1.36a2,2,0,0,1,1.72,2.58,5.86,5.86,0,0,0,.49,3.13,61.42,61.42,0,0,0,3.25,7.38,2.73,2.73,0,0,1-1.05,3.95,9.75,9.75,0,0,1-3.91,1.38,25.9,25.9,0,0,1-4.82.37c-.17,0-.42.09-.48-.11s.19-.33.34-.43a6.66,6.66,0,0,0,2.82-4.48,8.91,8.91,0,0,0-.75-4.88A15.23,15.23,0,0,0,114,38.28a12.57,12.57,0,0,0-7.32-3.72A17.46,17.46,0,0,0,104.5,34.43Z"/><path class="cls-1" d="M110.14,67.52a9,9,0,0,1-3.92-.92,29,29,0,0,1-7-4.61c-.16-.14-.49-.28-.33-.56s.46-.13.7-.06a12.15,12.15,0,0,0,11.21-1.9,7.57,7.57,0,0,0,2.74-3.31,1.11,1.11,0,0,0,.13-.52c-.08-.7.4-.85.91-.92a14.7,14.7,0,0,1,3.69,0,6.17,6.17,0,0,0,3.76-.59.84.84,0,0,1,1.17.18,12.9,12.9,0,0,1,1.48,1.88,2.92,2.92,0,0,1-.84,4.15,5.17,5.17,0,0,1-1.83.88,19.22,19.22,0,0,0-6.64,3.44c-.77.57-1.47,1.22-2.21,1.82A4.35,4.35,0,0,1,110.14,67.52Z"/><path class="cls-1" d="M88.09,42.25a8.82,8.82,0,0,1,3.24,1.25c.13.06.24.15.36.22a.68.68,0,0,1,.35,1,22.49,22.49,0,0,0-1.69,4.65,10.55,10.55,0,0,0,.4,6.77A10.26,10.26,0,0,0,93.86,60c1.21,1,2.54,1.73,3.83,2.55.32.21.64.42.45.85s-.49.39-.9.35A20.52,20.52,0,0,1,90.57,62a11.2,11.2,0,0,1-3.52-2.33,27.51,27.51,0,0,0-2.86-2.53,4.37,4.37,0,0,1-1.88-3.2,3.64,3.64,0,0,1,.57-2.16,20.42,20.42,0,0,0,2.37-6.9c.07-.33.11-.67.2-1A2.43,2.43,0,0,1,88.09,42.25Z"/><path class="cls-1" d="M101.82,61.42a4.13,4.13,0,0,1-3.16-1.31,3,3,0,0,0-2.58-.92,2.9,2.9,0,0,1-2.68-1.38,7.71,7.71,0,0,1-1.2-3.59,21.44,21.44,0,0,1,1-7.87c.07-.26.17-.5.49-.52a.6.6,0,0,1,.69.35,11.31,11.31,0,0,0,4.41,4.9,4.59,4.59,0,0,1,2.19,4,.86.86,0,0,0,.66.89,21.64,21.64,0,0,0,4.78,1,12.79,12.79,0,0,0,3,0,.66.66,0,0,1,.69.37.58.58,0,0,1-.19.75,11.43,11.43,0,0,1-3.49,2.15A13.3,13.3,0,0,1,101.82,61.42Z"/><path class="cls-1" d="M94.37,44.05a8.33,8.33,0,0,1-3.59-1.66,8.14,8.14,0,0,1-3-6.09,3,3,0,0,1,2.53-3.39c1.49-.4,3-.57,4.52-.85a35.91,35.91,0,0,0,3.66-.85.82.82,0,0,1,1.1,1c-.1.65-.21,1.3-.32,1.94a3.45,3.45,0,0,1-1,1.9,9.6,9.6,0,0,0-2.65,5.5A6.77,6.77,0,0,1,95,43.65.62.62,0,0,1,94.37,44.05Z"/><path class="cls-1" d="M116.18,48.29a4.64,4.64,0,0,1-1.31,3.08,37.91,37.91,0,0,1-3.93,3.56,6.92,6.92,0,0,1-2.67,1.43,5.66,5.66,0,0,1-4.39-1.07,9.58,9.58,0,0,1-1.86-2,32.67,32.67,0,0,0-3-3c-.23-.21-.44-.42-.27-.76a.64.64,0,0,1,.83-.36,11.1,11.1,0,0,1,3.8,1.69,4.05,4.05,0,0,0,3.1.59,9.91,9.91,0,0,0,6.82-4.19A5.32,5.32,0,0,0,114,46a.78.78,0,0,1,.68-.59c.35,0,.52.21.7.47A5.25,5.25,0,0,1,116.18,48.29Z"/><path class="cls-1" d="M103.1,35.52a4.26,4.26,0,0,1,2.15.48A18.5,18.5,0,0,0,109,37.34a5.77,5.77,0,0,1,4.17,3.6c.1.26.19.49-.1.69s-.47,0-.67-.19a7.72,7.72,0,0,0-3.64-2.19,7.34,7.34,0,0,0-5.65,1.14,8.84,8.84,0,0,0-2.9,2.61,4.29,4.29,0,0,0-.47,4.15c.07.2.21.41,0,.6a.49.49,0,0,1-.66,0c-1.35-.84-2.54-1.82-2.74-3.55a4.66,4.66,0,0,1,.85-3.16,10.93,10.93,0,0,0,1.39-2.8C99.18,36.46,100.78,35.53,103.1,35.52Z"/><path class="cls-1" d="M101.16,47c0-2.32.71-4.2,2.56-5.37,2-1.26,5.17-1.63,7-.32a4.24,4.24,0,0,1,1.93,3.46A2.47,2.47,0,0,1,111,47.39a4.73,4.73,0,0,1-3.88.13c-1.23-.58-1.33-1.54-.31-2.43l0,0c.32-.28.83-.45.63-1-.13-.36-1.07-.64-1.55-.52a2.51,2.51,0,0,0-1.7,1.72c-.67,1.66-.54,2.47,1.35,3.72a4.75,4.75,0,0,0,2.44.71c.19,0,.48-.09.52.15s-.25.27-.43.31a8.16,8.16,0,0,1-5-.28A2.77,2.77,0,0,1,101.16,47Z"/></g></g></svg>