<svg xmlns="http://www.w3.org/2000/svg" width="52.827" height="36.55" viewBox="0 0 52.827 36.55">
  <g id="Calque_1" data-name="Calque 1" transform="translate(-0.029 0.001)">
    <path id="Path_539" data-name="Path 539" d="M45,25.789a1.413,1.413,0,0,0,.32-.5c1.262-2.406,2.406-4.888,3.491-7.391a36.655,36.655,0,0,1,1.683-3.31c.745-1.325,1.54-2.616,2.406-3.866a38.362,38.362,0,0,1,2.848-3.643,25.289,25.289,0,0,1,5.161-4.5A15.606,15.606,0,0,1,66.764.2a11.357,11.357,0,0,1,4.627.084,4.206,4.206,0,0,1,3.142,3.651A6.343,6.343,0,0,1,73.848,7.3a15.245,15.245,0,0,1-1.8,2.966.492.492,0,0,1-.6.156c-.273-.093-.337-.3-.2-.585a6.411,6.411,0,0,0,.517-1.519A4.063,4.063,0,0,0,69.818,3.9a7.243,7.243,0,0,0-2.751-.9,12.531,12.531,0,0,0-1.876-.139,7.694,7.694,0,0,0-4.968,1.826,17.781,17.781,0,0,0-3.487,4.206A50.843,50.843,0,0,0,53.9,14.163c-.719,1.5-1.388,3.033-2.057,4.56a35.583,35.583,0,0,1-1.75,3.365A45.767,45.767,0,0,1,47.1,26.748a2.917,2.917,0,0,1-.21.244Z" transform="translate(-26.054 0)" fill="#fff"/>
    <path id="Path_540" data-name="Path 540" d="M25.316,56.69l1.9,1.2a17.246,17.246,0,0,0,1.649,1.153,49.682,49.682,0,0,0,6.31,3.58,24.948,24.948,0,0,0,6.31,1.9,7.42,7.42,0,0,0,3.344-.1,7.311,7.311,0,0,0,2.886-1.737,8.459,8.459,0,0,0,.841-.917.421.421,0,0,1,.517-.172.463.463,0,0,1,.172.58.522.522,0,0,1-.08.151,12.745,12.745,0,0,1-4.808,4.08,9.376,9.376,0,0,1-4.741.782,19.409,19.409,0,0,1-8.182-2.524c-1.8-1.031-3.483-2.246-5.17-3.449-.358-.257-.707-.517-1.056-.778-.471-.387-.946-.77-1.455-1.111a22,22,0,0,0-2.44-1.632,28.061,28.061,0,0,0-4.989-2.368,7.332,7.332,0,0,0-2.945-.358,13.225,13.225,0,0,0-1.99.269.265.265,0,0,1-.337-.143c-.08-.172,0-.286.143-.387a6.705,6.705,0,0,1,2.81-1.22,11.736,11.736,0,0,1,5.515.421,22.643,22.643,0,0,1,5.38,2.524Z" transform="translate(-6.37 -30.901)" fill="#fff"/>
    <path id="Path_541" data-name="Path 541" d="M17.377,64.362c.509.341.984.724,1.455,1.111a6.469,6.469,0,0,0-.816.812,20.612,20.612,0,0,1-1.729,1.645,21.407,21.407,0,0,1-3.319,2.4,14.992,14.992,0,0,1-5.38,1.985,11.42,11.42,0,0,1-4.434-.135A4.206,4.206,0,0,1,.076,68.728a5.855,5.855,0,0,1,.576-3.365A15.173,15.173,0,0,1,2.5,62.254.517.517,0,0,1,2.991,62a.391.391,0,0,1,.362.6,5.384,5.384,0,0,0-.576,1.809,3.941,3.941,0,0,0,1.005,3.365A5.742,5.742,0,0,0,7.1,69.418a11.954,11.954,0,0,0,2.448.206,7.66,7.66,0,0,0,4.846-1.83,16.161,16.161,0,0,0,2.722-3.045C17.2,64.606,17.289,64.484,17.377,64.362Z" transform="translate(0 -35.918)" fill="#fff"/>
    <path id="Path_542" data-name="Path 542" d="M102.847,31.205a5.57,5.57,0,0,0-.778.05c-.29.055-.421-.059-.421-.349a3.454,3.454,0,0,1,.311-1.535.812.812,0,0,1,1.291-.3,8.539,8.539,0,0,0,3.5,1.582,25.2,25.2,0,0,0,2.494.572.841.841,0,0,1,.724,1.085,2.465,2.465,0,0,0,.206,1.317,25.837,25.837,0,0,0,1.367,3.1,1.148,1.148,0,0,1-.442,1.662,4.1,4.1,0,0,1-1.645.58,10.9,10.9,0,0,1-2.028.156c-.072,0-.177.038-.2-.046s.08-.139.143-.181a2.8,2.8,0,0,0,1.186-1.884,3.748,3.748,0,0,0-.315-2.053,6.407,6.407,0,0,0-1.392-2.137,5.288,5.288,0,0,0-3.079-1.565A7.344,7.344,0,0,0,102.847,31.205Z" transform="translate(-58.873 -16.723)" fill="#fff"/>
    <path id="Path_543" data-name="Path 543" d="M103.6,59.669a3.786,3.786,0,0,1-1.649-.387A12.2,12.2,0,0,1,99,57.343c-.067-.059-.206-.118-.139-.236s.193-.055.294-.025a5.111,5.111,0,0,0,4.715-.8,3.184,3.184,0,0,0,1.153-1.392.467.467,0,0,0,.055-.219c-.034-.294.168-.358.383-.387a6.183,6.183,0,0,1,1.552,0,2.6,2.6,0,0,0,1.582-.248.353.353,0,0,1,.492.076,5.426,5.426,0,0,1,.623.791,1.228,1.228,0,0,1-.353,1.746,2.175,2.175,0,0,1-.77.37,8.085,8.085,0,0,0-2.793,1.447c-.324.24-.618.513-.93.766A1.83,1.83,0,0,1,103.6,59.669Z" transform="translate(-57.251 -31.268)" fill="#fff"/>
    <path id="Path_544" data-name="Path 544" d="M84.738,42.236a3.71,3.71,0,0,1,1.363.526c.055.025.1.063.151.093a.286.286,0,0,1,.147.421,9.461,9.461,0,0,0-.711,1.956,4.438,4.438,0,0,0,.168,2.848A4.316,4.316,0,0,0,87.165,49.7a15.3,15.3,0,0,0,1.611,1.073c.135.088.269.177.189.358s-.206.164-.379.147a8.632,8.632,0,0,1-2.806-.736,4.711,4.711,0,0,1-1.481-.98A11.572,11.572,0,0,0,83.1,48.5a1.838,1.838,0,0,1-.791-1.346,1.531,1.531,0,0,1,.24-.909,8.59,8.59,0,0,0,1-2.9c.029-.139.046-.282.084-.421A1.022,1.022,0,0,1,84.738,42.236Z" transform="translate(-47.667 -24.464)" fill="#fff"/>
    <path id="Path_545" data-name="Path 545" d="M96.224,52.379a1.737,1.737,0,0,1-1.329-.551,1.262,1.262,0,0,0-1.085-.387,1.22,1.22,0,0,1-1.127-.58,3.243,3.243,0,0,1-.5-1.51,9.019,9.019,0,0,1,.421-3.31c.029-.109.072-.21.206-.219a.252.252,0,0,1,.29.147,4.758,4.758,0,0,0,1.855,2.061,1.931,1.931,0,0,1,.921,1.683.362.362,0,0,0,.278.374,9.1,9.1,0,0,0,2.011.421,5.38,5.38,0,0,0,1.262,0,.278.278,0,0,1,.29.156.244.244,0,0,1-.08.315,4.808,4.808,0,0,1-1.468.9,5.6,5.6,0,0,1-1.939.5Z" transform="translate(-53.377 -26.543)" fill="#fff"/>
    <path id="Path_546" data-name="Path 546" d="M90.535,36.574a3.5,3.5,0,0,1-1.51-.7,3.424,3.424,0,0,1-1.262-2.562,1.262,1.262,0,0,1,1.064-1.426c.627-.168,1.262-.24,1.9-.358a15.105,15.105,0,0,0,1.54-.358.345.345,0,0,1,.463.421c-.042.273-.088.547-.135.816a1.451,1.451,0,0,1-.421.8,4.038,4.038,0,0,0-1.115,2.314,2.848,2.848,0,0,1-.261.883A.261.261,0,0,1,90.535,36.574Z" transform="translate(-50.821 -18.045)" fill="#fff"/>
    <path id="Path_547" data-name="Path 547" d="M106.046,46.621a1.952,1.952,0,0,1-.551,1.3,15.945,15.945,0,0,1-1.653,1.5,2.911,2.911,0,0,1-1.123.6,2.381,2.381,0,0,1-1.847-.45,4.029,4.029,0,0,1-.782-.841,13.744,13.744,0,0,0-1.262-1.262c-.1-.088-.185-.177-.114-.32a.269.269,0,0,1,.349-.151,4.669,4.669,0,0,1,1.6.711,1.7,1.7,0,0,0,1.3.248,4.169,4.169,0,0,0,2.869-1.763,2.238,2.238,0,0,0,.294-.53.328.328,0,0,1,.286-.248c.147,0,.219.088.294.2A2.208,2.208,0,0,1,106.046,46.621Z" transform="translate(-57.159 -26.309)" fill="#fff"/>
    <path id="Path_548" data-name="Path 548" d="M99.171,35.518a1.792,1.792,0,0,1,.9.2,7.782,7.782,0,0,0,1.577.564,2.427,2.427,0,0,1,1.754,1.514c.042.109.08.206-.042.29s-.2,0-.282-.08a3.247,3.247,0,0,0-1.531-.921,3.088,3.088,0,0,0-2.377.48,3.718,3.718,0,0,0-1.22,1.1,1.8,1.8,0,0,0-.2,1.746c.029.084.088.172,0,.252a.206.206,0,0,1-.278,0,2.054,2.054,0,0,1-1.153-1.493,1.96,1.96,0,0,1,.358-1.329,4.6,4.6,0,0,0,.585-1.178A1.8,1.8,0,0,1,99.171,35.518Z" transform="translate(-55.786 -20.577)" fill="#fff"/>
    <path id="Path_549" data-name="Path 549" d="M101.153,43.228a2.461,2.461,0,0,1,1.077-2.259,2.89,2.89,0,0,1,2.945-.135,1.784,1.784,0,0,1,.812,1.455,1.039,1.039,0,0,1-.694,1.1,1.99,1.99,0,0,1-1.632.055c-.517-.244-.559-.648-.13-1.022h0c.135-.118.349-.189.265-.421-.055-.151-.45-.269-.652-.219a1.056,1.056,0,0,0-.715.724c-.282.7-.227,1.039.568,1.565a2,2,0,0,0,1.026.3c.08,0,.2-.038.219.063s-.105.114-.181.13a3.432,3.432,0,0,1-2.1-.118,1.165,1.165,0,0,1-.8-1.22Z" transform="translate(-58.583 -23.458)" fill="#fff"/>
  </g>
</svg>
