<svg xmlns="http://www.w3.org/2000/svg" viewBox="0 0 45.13 44"><defs><style>.cls-1{fill:#470137;}.cls-2{fill:#ff61f6;}</style></defs><g id="Calque_2" data-name="Calque 2"><g id="XD_lockup" data-name="XD lockup"><g id="Layer_2" data-name="Layer 2"><g id="Surfaces"><g id="UI_UX_Surface" data-name="UI UX Surface"><g id="Outline_no_shadow" data-name="Outline no shadow"><g id="Group_175492" data-name="Group 175492"><path id="Path_104683" data-name="Path 104683" class="cls-1" d="M9.71,0H35.42a9.71,9.71,0,0,1,9.71,9.71V34.29A9.71,9.71,0,0,1,35.42,44H9.71A9.71,9.71,0,0,1,0,34.29H0V9.71A9.71,9.71,0,0,1,9.71,0Z"/></g></g></g></g><g id="Outlined_Mnemonics_Logos" data-name="Outlined Mnemonics Logos"><g id="Xd"><g id="Group_175493" data-name="Group 175493"><path id="Path_104674" data-name="Path 104674" class="cls-2" d="M23.72,11.57l-5.63,9.3,6,9.87a.29.29,0,0,1,0,.22c0,.07-.09,0-.22.05H19.64c-.3,0-.52,0-.64-.21-.4-.79-.81-1.57-1.21-2.35S17,26.88,16.5,26.07s-.9-1.62-1.35-2.45h0c-.4.81-.82,1.61-1.25,2.42s-.87,1.61-1.29,2.41-.86,1.59-1.3,2.38c-.08.18-.22.2-.42.2H6.71c-.08,0-.13,0-.14-.05a.34.34,0,0,1,0-.22l5.84-9.6L6.77,11.54c-.06-.08-.07-.14,0-.2a.2.2,0,0,1,.18-.07h4.27a.61.61,0,0,1,.27,0,.49.49,0,0,1,.18.17c.37.81.77,1.61,1.22,2.42s.89,1.6,1.34,2.39.87,1.59,1.26,2.39h0c.4-.83.81-1.63,1.22-2.42L18,13.88c.43-.8.85-1.59,1.25-2.37a.45.45,0,0,1,.12-.2.42.42,0,0,1,.24-.05h4a.18.18,0,0,1,.21.13h0a.16.16,0,0,1-.06.17Z"/></g><g id="Group_175494" data-name="Group 175494"><path id="Path_104675" data-name="Path 104675" class="cls-2" d="M32.41,31.4a9.4,9.4,0,0,1-4-.85A6.32,6.32,0,0,1,25.54,28a8.17,8.17,0,0,1-1-4.28,7.83,7.83,0,0,1,1-4,7.56,7.56,0,0,1,3-2.91,9.67,9.67,0,0,1,4.75-1.09h.4l.57.05v-6c0-.15.06-.22.18-.22h3.82a.16.16,0,0,1,.18.14h0V27.71a11.1,11.1,0,0,0,.05,1.12c0,.4,0,.77.07,1.09a.3.3,0,0,1-.18.3,15.6,15.6,0,0,1-3.06.91A15.76,15.76,0,0,1,32.41,31.4Zm1.85-3.75V19.38a4.37,4.37,0,0,0-.5-.09l-.62,0a4.58,4.58,0,0,0-2.12.49,4,4,0,0,0-1.59,1.39,4.1,4.1,0,0,0-.62,2.39,5.14,5.14,0,0,0,.32,1.94A3.71,3.71,0,0,0,30,26.8a3.21,3.21,0,0,0,1.28.76,5.12,5.12,0,0,0,1.55.24c.29,0,.55,0,.79,0a3.76,3.76,0,0,0,.67-.12Z"/></g></g></g></g></g></g></svg>