<svg id="behance" xmlns="http://www.w3.org/2000/svg" width="70" height="70" viewBox="0 0 70 70">
  <g id="Group_379" data-name="Group 379">
    <g id="Group_378" data-name="Group 378">
      <path id="Path_527" data-name="Path 527" d="M20.915,20.692c0-1.906-1.3-1.906-1.3-1.906H14.28v4.091h5.007c.866,0,1.628-.276,1.628-2.185Z" transform="translate(6.71 8.274)" fill="#eff5f8"/>
      <path id="Path_528" data-name="Path 528" d="M34.022,22.864a3.963,3.963,0,0,0-4.016,3.309h7.5A3.261,3.261,0,0,0,34.022,22.864Z" transform="translate(13.035 9.706)" fill="#eff5f8"/>
      <path id="Path_529" data-name="Path 529" d="M19.164,25.68H14.283v4.485h4.324c.073,0,.182,0,.311,0,.695-.017,2.016-.216,2.016-2.179C20.934,25.658,19.164,25.68,19.164,25.68Z" transform="translate(6.707 11.982)" fill="#eff5f8"/>
      <path id="Path_530" data-name="Path 530" d="M35,0A35,35,0,1,0,70,35,35.04,35.04,0,0,0,35,0Zm6.193,23.424H51.822V26.6H41.193ZM35.819,40.065c0,7.863-8.185,7.606-8.185,7.606h-13.4V21.907h13.4c4.076,0,7.292,2.251,7.292,6.862s-3.931,4.9-3.931,4.9c5.181,0,4.824,6.395,4.824,6.395ZM55.7,39.643H42.352a4.193,4.193,0,0,0,4.535,4.486c4.28,0,4.131-2.772,4.131-2.772h4.538c0,7.356-8.817,6.85-8.817,6.85-10.578,0-9.9-9.848-9.9-9.848s-.01-9.9,9.9-9.9C57.166,28.46,55.7,39.643,55.7,39.643Z" fill="#eff5f8"/>
    </g>
  </g>
</svg>
