<svg id="behance" xmlns="http://www.w3.org/2000/svg" xmlns:xlink="http://www.w3.org/1999/xlink" width="50" height="50" viewBox="0 0 50 50">
  <defs>
    <linearGradient id="linear-gradient" x1="0.5" x2="0.5" y2="1" gradientUnits="objectBoundingBox">
      <stop offset="0" stop-color="#ef487d"/>
      <stop offset="1" stop-color="#a51542"/>
    </linearGradient>
  </defs>
  <g id="Group_379" data-name="Group 379">
    <g id="Group_378" data-name="Group 378">
      <path id="Path_527" data-name="Path 527" d="M19.019,20.147c0-1.361-.926-1.361-.926-1.361H14.28v2.922h3.576C18.475,21.708,19.019,21.511,19.019,20.147Z" transform="translate(0.713 0.542)" fill="url(#linear-gradient)"/>
      <path id="Path_528" data-name="Path 528" d="M32.875,22.864a2.831,2.831,0,0,0-2.869,2.364h5.355A2.329,2.329,0,0,0,32.875,22.864Z" transform="translate(0.737 0.4)" fill="url(#linear-gradient)"/>
      <path id="Path_529" data-name="Path 529" d="M17.77,25.68H14.283v3.2h3.089c.052,0,.13,0,.222,0,.5-.012,1.44-.154,1.44-1.557C19.034,25.664,17.77,25.68,17.77,25.68Z" transform="translate(0.71 1.221)" fill="url(#linear-gradient)"/>
      <path id="Path_530" data-name="Path 530" d="M25,0A25,25,0,1,0,50,25,25.028,25.028,0,0,0,25,0Zm4.424,16.731h7.592V19H29.424ZM25.585,28.618c0,5.616-5.847,5.433-5.847,5.433H10.164v-18.4h9.575c2.911,0,5.208,1.608,5.208,4.9a3.194,3.194,0,0,1-2.808,3.5c3.7,0,3.446,4.568,3.446,4.568Zm14.2-.3H30.252a3,3,0,0,0,3.24,3.2c3.057,0,2.951-1.98,2.951-1.98h3.242c0,5.255-6.3,4.893-6.3,4.893-7.556,0-7.07-7.034-7.07-7.034s-.007-7.071,7.07-7.071C40.833,20.328,39.787,28.316,39.789,28.316Z" fill="url(#linear-gradient)"/>
    </g>
  </g>
</svg>
