<svg xmlns="http://www.w3.org/2000/svg" xmlns:xlink="http://www.w3.org/1999/xlink" width="50.006" height="50" viewBox="0 0 50.006 50">
  <defs>
    <linearGradient id="linear-gradient" x1="0.5" x2="0.5" y2="1" gradientUnits="objectBoundingBox">
      <stop offset="0" stop-color="#ef487d"/>
      <stop offset="1" stop-color="#a51542"/>
    </linearGradient>
  </defs>
  <g id="dribble-big-logo" transform="translate(0 -0.028)">
    <path id="Path_531" data-name="Path 531" d="M25,50.028a25,25,0,1,1,25-25A25.031,25.031,0,0,1,25,50.028ZM44.985,28.271A29.759,29.759,0,0,0,32.38,27.4a87.286,87.286,0,0,1,3.931,14.428A20.265,20.265,0,0,0,44.985,28.271ZM32.91,43.687A84.311,84.311,0,0,0,28.59,28.342c-.043.015-.087.028-.133.044C17.043,32.36,12.946,40.28,12.581,41.025A20.217,20.217,0,0,0,32.91,43.687Zm-22.942-5.1c.458-.785,6.013-9.981,16.45-13.355.264-.086.53-.165.8-.239-.507-1.152-1.06-2.3-1.641-3.436a74.572,74.572,0,0,1-20.8,2.88c-.006.206-.009.412-.009.618A20.152,20.152,0,0,0,9.968,38.589ZM5.192,20.914A75.646,75.646,0,0,0,23.9,18.449a128.109,128.109,0,0,0-7.5-11.7A20.306,20.306,0,0,0,5.192,20.914ZM20.26,5.386a107.771,107.771,0,0,1,7.552,11.846c7.2-2.7,10.242-6.792,10.606-7.309A20.223,20.223,0,0,0,20.26,5.386Zm20.408,6.875c-.426.578-3.819,4.925-11.3,7.977.471.967.922,1.948,1.344,2.933q.221.526.435,1.044a47.231,47.231,0,0,1,14.094.653A20.145,20.145,0,0,0,40.668,12.261Z" fill-rule="evenodd" fill="url(#linear-gradient)"/>
  </g>
</svg>
