<svg xmlns="http://www.w3.org/2000/svg" width="70.008" height="70" viewBox="0 0 70.008 70">
  <g id="dribble-big-logo" transform="translate(0 -0.028)">
    <path id="Path_531" data-name="Path 531" d="M35,70.028a35,35,0,1,1,35-35A35.043,35.043,0,0,1,35,70.028Zm27.975-30.46a41.663,41.663,0,0,0-17.648-1.212,122.2,122.2,0,0,1,5.5,20.2A28.37,28.37,0,0,0,62.979,39.568ZM46.073,61.151a118.035,118.035,0,0,0-6.047-21.484c-.06.021-.122.039-.187.062C23.861,45.293,18.124,56.381,17.613,57.423a28.3,28.3,0,0,0,28.46,3.728ZM13.955,54.014c.641-1.1,8.418-13.973,23.03-18.7.37-.12.742-.231,1.116-.334-.71-1.612-1.483-3.219-2.3-4.81A104.4,104.4,0,0,1,6.683,34.2c-.008.288-.013.577-.013.866A28.213,28.213,0,0,0,13.955,54.014ZM7.269,29.269a105.9,105.9,0,0,0,26.194-3.451A179.353,179.353,0,0,0,22.957,9.433,28.428,28.428,0,0,0,7.269,29.269ZM28.365,7.53A150.879,150.879,0,0,1,38.937,24.115c10.077-3.781,14.339-9.509,14.848-10.233A28.312,28.312,0,0,0,28.365,7.53Zm28.571,9.625c-.6.809-5.346,6.9-15.821,11.168.66,1.353,1.291,2.727,1.881,4.106q.31.737.609,1.462a66.124,66.124,0,0,1,19.732.914A28.2,28.2,0,0,0,56.935,17.155Z" fill="#eff5f8" fill-rule="evenodd"/>
  </g>
</svg>
