<svg xmlns="http://www.w3.org/2000/svg" xmlns:xlink="http://www.w3.org/1999/xlink" width="50" height="50" viewBox="0 0 50 50">
  <defs>
    <linearGradient id="linear-gradient" x1="0.5" x2="0.5" y2="1" gradientUnits="objectBoundingBox">
      <stop offset="0" stop-color="#ef487d"/>
      <stop offset="1" stop-color="#a51542"/>
    </linearGradient>
  </defs>
  <g id="linkedin" transform="translate(0 0.001)">
    <path id="Subtraction_2" data-name="Subtraction 2" d="M25,50a25.187,25.187,0,0,1-5.039-.508,24.858,24.858,0,0,1-8.94-3.762,25.07,25.07,0,0,1-9.057-11A24.873,24.873,0,0,1,.508,30.038a25.246,25.246,0,0,1,0-10.076,24.866,24.866,0,0,1,3.762-8.939,25.075,25.075,0,0,1,11-9.058A24.871,24.871,0,0,1,19.962.508a25.239,25.239,0,0,1,10.077,0A24.858,24.858,0,0,1,38.978,4.27a25.071,25.071,0,0,1,9.057,11,24.866,24.866,0,0,1,1.457,4.693,25.243,25.243,0,0,1,0,10.076,24.87,24.87,0,0,1-3.762,8.939,25.075,25.075,0,0,1-11,9.058,24.872,24.872,0,0,1-4.693,1.457A25.185,25.185,0,0,1,25,50ZM21.88,18.7V34.35h4.7V25.885a3.491,3.491,0,0,1,1.076-2.438,3.823,3.823,0,0,1,1.173-.8,3.613,3.613,0,0,1,1.443-.3,2.535,2.535,0,0,1,1.266.3,2.123,2.123,0,0,1,.784.791,4.783,4.783,0,0,1,.51,2.4v8.508h4.682V25.493a12.49,12.49,0,0,0-.491-3.734,5.6,5.6,0,0,0-1.25-2.216,4.577,4.577,0,0,0-3.445-1.336,7.727,7.727,0,0,0-3.185.644,6.766,6.766,0,0,0-2.562,2.017V18.7Zm-7.793.051v15.6h4.682v-15.6ZM16.406,12.5a2.344,2.344,0,1,0,2.344,2.344A2.346,2.346,0,0,0,16.406,12.5Z" transform="translate(0 -0.001)" fill="url(#linear-gradient)"/>
  </g>
</svg>
