<svg xmlns="http://www.w3.org/2000/svg" width="70" height="70" viewBox="0 0 70 70">
  <g id="linkedin" transform="translate(0 0.001)">
    <path id="Subtraction_2" data-name="Subtraction 2" d="M35,70a35.262,35.262,0,0,1-7.054-.711,34.8,34.8,0,0,1-12.515-5.267,35.1,35.1,0,0,1-12.68-15.4,34.822,34.822,0,0,1-2.039-6.57,35.344,35.344,0,0,1,0-14.107A34.813,34.813,0,0,1,5.977,15.432a35.1,35.1,0,0,1,15.4-12.681A34.819,34.819,0,0,1,27.946.711a35.335,35.335,0,0,1,14.108,0A34.8,34.8,0,0,1,54.569,5.978a35.1,35.1,0,0,1,12.68,15.4,34.812,34.812,0,0,1,2.039,6.57,35.34,35.34,0,0,1,0,14.107,34.818,34.818,0,0,1-5.266,12.515,35.106,35.106,0,0,1-15.4,12.681,34.821,34.821,0,0,1-6.57,2.039A35.259,35.259,0,0,1,35,70ZM30.632,26.174V48.09H37.21V36.238a4.888,4.888,0,0,1,1.507-3.413,5.352,5.352,0,0,1,1.642-1.114,5.059,5.059,0,0,1,2.02-.421,3.549,3.549,0,0,1,1.773.42,2.972,2.972,0,0,1,1.1,1.107,6.7,6.7,0,0,1,.714,3.36V48.088h6.554V35.69a17.487,17.487,0,0,0-.687-5.228,7.836,7.836,0,0,0-1.75-3.1,6.408,6.408,0,0,0-4.824-1.871,10.817,10.817,0,0,0-4.459.9,9.472,9.472,0,0,0-3.587,2.824v-3.04Zm-10.91.072V48.09h6.554V26.245ZM22.968,17.5a3.281,3.281,0,1,0,3.282,3.281A3.285,3.285,0,0,0,22.968,17.5Z" transform="translate(0 -0.001)" fill="#eff5f8"/>
  </g>
</svg>
