<svg id="no" xmlns="http://www.w3.org/2000/svg" width="24.551" height="24.552" viewBox="0 0 24.551 24.552">
  <circle id="Ellipse_9" data-name="Ellipse 9" cx="12.275" cy="12.275" r="12.275" transform="translate(0 0.001)" fill="#f58a97"/>
  <path id="Path_86" data-name="Path 86" d="M270.993,72.97a12.253,12.253,0,0,1,9.679-12.021,12.275,12.275,0,1,0,0,24.042A12.253,12.253,0,0,1,270.993,72.97Z" transform="translate(-266.001 -60.694)" fill="#f07281"/>
  <path id="Path_87" data-name="Path 87" d="M315.389,106.886l3.123-3.123a.719.719,0,0,0,0-1.017l-2.139-2.139a.719.719,0,0,0-1.017,0l-3.123,3.123-3.123-3.123a.719.719,0,0,0-1.017,0l-2.139,2.139a.719.719,0,0,0,0,1.017l3.123,3.123-3.123,3.123a.719.719,0,0,0,0,1.017l2.139,2.139a.719.719,0,0,0,1.017,0l3.123-3.123,3.123,3.123a.719.719,0,0,0,1.017,0l2.139-2.139a.719.719,0,0,0,0-1.017Z" transform="translate(-299.742 -94.395)" fill="#f9f7f8"/>
</svg>
